<svg version="1.2" xmlns="http://www.w3.org/2000/svg" viewBox="0 0 1554 541" width="101" height="35"><style>.s0{fill:#02b2fe}.s1{fill:#fe015b}.s2{fill:#ff0000}.s3{opacity: .2;fill:#1b87b6}.s4{fill:#00005a}.s5{fill:#ffffff}</style><path class="s0" d="m18.7 24.1c33.1-0.1 66.2-0.2 99.2 0c38.8-0.1 77.6 10.3 110.8 30.2c6 3.6 11.7 7.4 17.3 11.3l0.5 0.2q-2.1 2.3-4.1 4.6c-43.7 53.4-87.4 106.7-131 160c-2.6 3.2-5.5 6.2-7.7 9.7c1.1 3 3.6 5.2 5.5 7.7c44.4 54 88.6 108.1 132.9 162.1q2.1 2.6 4 5.2c-15.6 10.9-32.2 20.5-50.2 27.1c-20.6 8.4-42.8 12.5-64.9 14.2q-56.1 0.2-112.3 0c-0.4-35.4 0-70.9-0.1-106.4c0-108.7-0.2-217.3 0.1-325.9z" /><path class="s0" d="m262.6 232.6c19.2-23.4 38.2-46.8 57.5-70.1c8.8 22.1 13.4 45.8 14.5 69.5c1.1 10-0.4 20-1 29.9c-2.1 19.3-6.3 38.4-13.5 56.4c-19.3-23.5-38.6-47-57.9-70.6c-1.8-2.5-4.5-4.6-5.5-7.6c1.7-2.7 3.9-5.1 5.9-7.5z" /><path class="s1" d="m280.4 24.4c1.8-0.2 3.7-0.4 5.6-0.4q66 0 132 0c4.9 0 9.9-0.1 14.8 0.2c-11 12.8-21.4 26.1-32.2 39c-0.1 0.1-0.2 0.3-0.3 0.4c-4.5 5.6-9.2 11.1-13.7 16.7c0 0.1-0.2 0.2-0.3 0.3c-11.1 13.5-22 27.1-33.2 40.5c-0.4 0.4-1.1 1.2-1.4 1.6c-6.9 9.1-14.5 17.5-21.5 26.5c-3.4 3.9-6.4 8.1-10 11.9c-13.3-34.3-35.7-64.9-64.1-88.2c-3.1-2.6-6.1-5.1-9.6-7.1l-0.5-0.2c2.2-0.9 3.5-2.9 4.9-4.7c2.8-3.4 5.6-6.8 8.4-10.2c0.1-0.1 0.3-0.3 0.3-0.4c6.9-8.7 14.4-16.8 20.8-25.9z" /><path class="s1" d="m523.6 83c10.7-0.1 21.5-0.1 32.2 0.1c0.3 0.2 1 0.6 1.3 0.8c-10.9-0.6-21.8-0.2-32.8-0.2z" /><path class="s1" d="m557.8 84.1c2.6 0 5.5-0.2 7.5 1.7c-2.5-0.5-5-1.1-7.5-1.7z" /><path class="s1" d="m566 86.1l0.8-0.5l0.9 0.5l0.2 1c-0.5-0.3-1.4-0.8-1.9-1z" /><path class="s1" d="m1111.3 106.8c0.1-0.1 0.3-0.3 0.4-0.3c-0.1 0-0.3 0.2-0.4 0.3z" /><path class="s1" d="m751.4 113.7c0.1-0.1 0.3-0.3 0.3-0.4c0 0.1-0.2 0.3-0.3 0.4z" /><path class="s1" d="m813.3 138.4c0.1 0 0.3 0.2 0.4 0.2c-0.1 0-0.3-0.2-0.4-0.2z" /><path class="s1" d="m785.4 141.7c0-0.1 0.2-0.3 0.3-0.3c-0.1 0-0.3 0.2-0.3 0.3z" /><path class="s1" d="m1087.4 145.3l0.8-0.2c-0.2 0.5-0.6 1.5-0.7 2c-0.1-0.4-0.1-1.3-0.1-1.8z" /><path class="s1" d="m1136.3 145.7c0.1-0.1 0.2-0.3 0.3-0.3c-0.1 0-0.2 0.2-0.3 0.3z" /><path class="s1" d="m1173.4 146.3c0 0.1 0.2 0.3 0.2 0.4c0-0.1-0.2-0.3-0.2-0.4z" /><path class="s1" d="m1177.2 155l0.8 0.2l0.4 1l-0.5 0.7c-0.2-0.5-0.6-1.5-0.7-1.9z" /><path class="s1" d="m823 164.9c0.2-0.4 0.7-1.4 0.9-1.8l0.5 0.7l-0.5 1z" /><path class="s1" d="m1131.2 163.1q0.7 1.3 0.7 2.8q-2.6-0.7-0.7-2.8z" /><path class="s1" d="m780 167c0.2 0.5 0.7 1.4 1 1.9l-0.9-0.1l-0.6-1z" /><path class="s1" d="m581.3 171.7c0.1-0.1 0.3-0.2 0.4-0.3c-0.1 0.1-0.3 0.2-0.4 0.3z" /><path class="s1" d="m1173.4 173.7c0-0.1 0.2-0.3 0.3-0.4c-0.1 0.1-0.3 0.3-0.3 0.4z" /><path class="s1" d="m1136.3 174.3c0.1 0.1 0.3 0.3 0.3 0.4c0-0.1-0.2-0.3-0.3-0.4z" /><path class="s1" d="m559 182.8c0.5-0.1 1.5-0.5 2.1-0.6l-0.3 0.8l-1 0.4z" /><path class="s1" d="m1152.2 182.9q2.8 0 5.6 0.1c-0.6 1.9-5.1 1.9-5.6-0.1z" /><path class="s1" d="m628.3 186.7c0-0.1 0.2-0.3 0.2-0.4c0 0.1-0.2 0.3-0.2 0.4z" /><path class="s1" d="m621.3 195.7c0-0.1 0.2-0.3 0.3-0.4c-0.1 0.1-0.3 0.3-0.3 0.4z" /><path class="s1" d="m937.2 223.7c0.1-0.1 0.2-0.3 0.3-0.4c-0.1 0.1-0.2 0.3-0.3 0.4z" /><path class="s1" d="m1133.1 225.8c0.5 0.2 1.5 0.6 2 0.8l-0.8 0.5l-1-0.5z" /><path class="s1" d="m929.9 227.6c0.5-0.3 1.5-0.7 1.9-0.9l-0.1 0.9l-1 0.4z" /><path class="s1" d="m320.2 319.7c3 3 5.4 6.4 8.2 9.6c0 0.1 0.2 0.3 0.3 0.4c10.3 12.5 20.5 25.2 30.9 37.7c0.8 0.9 1.6 1.8 2.1 2.9c0.3 0.4 1 1.2 1.4 1.6c4.3 5 8.7 10 12.6 15.5c0.3 0.4 1 1.2 1.3 1.6c11 12.7 21.4 25.9 32 38.9c6.4 7.4 12.4 15 18.6 22.5c1.7 1.9 3.5 3.8 4.5 6.2c-50.2-0.2-100.5 0-150.7-0.1c-4.4-4.1-7.7-9.3-11.7-13.8c-0.1-0.1-0.3-0.3-0.3-0.4c-7.5-9.2-15.2-18.3-22.6-27.6c11.3-7.7 21.4-17.2 30.8-27.2c18.2-19.7 32.8-42.8 42.6-67.8z" /><path class="s2" d="m1265.4 26.6c7.3-0.9 15-0.8 21.9 2.1c5.9 2.9 7.5 10.2 7.5 16.3c0.1 42.6 0 85.3 0 128c0.3 3.7 0.1 7.8 2.2 10.9c5.2 4.4 12.7 0 17.8 4.3c5.2 3.5 5 10.3 5.8 15.9c0.3 5.6-0.4 11.3-1.7 16.9c-1.2 4.9-6.1 7.6-10.9 7.8c-12.4 0.5-25.1 0.3-37-3.8c-5.9-2-11.8-5.7-14.4-11.6c-5.1-10.7-5.8-22.8-6.4-34.4c-0.1-43.7 0-87.3-0.1-131c0-5.2 0.3-10.6 2.7-15.2c2.5-4.4 8-5.5 12.6-6.3z" /><path class="s2" d="m680.3 27.5c7.2-0.8 14.7-1.1 21.7 0.6c5.6 1.2 9.2 6.5 9.8 11.9c0.5 6.3 0.5 12.7-0.1 19c-0.7 4.5-3.3 9.3-8 10.7c-8.7 2.6-18.1 2.5-26.8 0.3c-4.7-1.2-7.6-5.7-8.6-10.2c-1.4-7.8-1.5-16.1 0.7-23.8c1.5-5 6.5-7.7 11.3-8.5z" /><path class="s2" d="m908.4 27.6c5.5-0.9 11.1-0.8 16.7-0.5c4.1 0.3 8.4 1.4 11.6 4.2c3.1 4.2 4.2 9.5 4.1 14.7c-0.1 6.8 0.7 14.4-3.6 20.2c-3.2 4.3-8.8 4.5-13.7 5.2c-5.4 0.9-10.8-0.1-16.1-0.9c-3.6-0.7-7-2.8-8.7-6.1c-2.6-5-2.6-10.9-2.6-16.4c0-5.1 0.3-10.5 2.9-15c2-3.2 5.9-4.5 9.4-5.4z" /><path fill-rule="evenodd" class="s2" d="m482.8 41.8c5.8-4.3 13.4-4 20.2-4.2c15.7 0.2 31.3 0.2 47 0.4c17-0.1 34.1 4.4 48.5 13.5c9.4 5.9 18.1 13.2 25.2 21.8c13.5 15.2 20.4 35.5 21 55.7c0.7 20.1-4.3 40.8-16.2 57.3c0 0.1-0.2 0.3-0.2 0.4q-3.1 4.5-6.7 8.6c-0.1 0.1-0.3 0.3-0.4 0.4c-11.6 13.6-27 24.3-44.3 29.4c-15.1 5.2-31.2 3.9-46.9 4.1c-12.6-0.2-25.3 0.5-38-0.5c-3.8-0.7-8.1-1.9-10.6-5.1c-2.6-4.8-3.3-10.3-3.9-15.6c-0.1-50 0-100 0-150c0.3-5.6 1.2-12 5.3-16.2zm40.8 41.3l0.8 0.6h-1c0.2 33.3 0 66.6 0 99.9c11.9 0 23.8 0.8 35.6-0.8l0.8 0.6l1-0.4l0.3-0.8c7.5-1.6 14.3-5.7 20.2-10.5c0.1-0.1 0.3-0.2 0.4-0.3q3.6-3 6.6-6.7c0.1-0.1 0.2-0.3 0.3-0.4q1.4-1.8 2.7-3.6c0.1-0.1 0.2-0.3 0.3-0.4c4.9-6.9 7.3-15.3 7.6-23.6c2-0.7 2-5.8-0.1-6.4c-0.3-10-4-19.9-10.5-27.6c-0.1-0.1-0.2-0.3-0.3-0.4c-2.3-2.7-4.9-5.3-7.6-7.6c-0.1-0.1-0.3-0.2-0.4-0.3c-3.8-3-7.9-5.6-12.4-7.3l-0.2-1l-0.9-0.5l-0.8 0.5l-0.8-0.3c-2-1.9-4.8-1.7-7.4-1.7l-0.7-0.2c-0.3-0.2-1-0.6-1.3-0.8c-10.7-0.2-21.5-0.2-32.2 0z" /><path class="s2" d="m994.6 45.7c6.5-1.9 13.5-2 20.2-1.2c5.3 0.7 11.2 2.9 13.5 8.1c2.2 6.2 1.5 12.9 1.6 19.4c0.1 7-0.2 14 0.2 21c9.2-0.4 18.5-1.5 27.7-0.4c3.9 1 8.3 2.7 9.9 6.6c3.1 6.9 2.1 14.6 2.1 21.8c-0.5 5.4-2.1 12.1-7.9 13.9c-10.3 4.1-21.3 0.4-32 1c-0.1 13.1 0 26.1 0 39.2c0.4 3.7 1 8.4 4.7 10.3c7.2 3.3 16-0.4 22.8 4.3c4.9 3.2 5.5 9.9 5.5 15.2c0 6.9 0.3 14.9-4.9 20.1c-6.2 5.1-14.6 3.7-22 3.8c-13.7-0.3-28-4-38.2-13.6c-8.9-9.3-11.7-22.7-12.3-35.1c-0.4-14.8 0.1-29.5-0.3-44.3c-5.5 0-11.3 1.8-16.6-0.5c-5.2-2.7-7.1-8.8-7.4-14.3c-0.3-7-0.2-14.2 1.9-21c1-3.3 3.8-5.9 7-6.9c4.9-1.8 10.1-0.4 15.1-0.1c0.5-11.3-0.2-22.7 0.3-34.1c0.3-5.5 3.3-11.7 9.1-13.2z" /><path fill-rule="evenodd" class="s2" d="m831.7 94.7c4.8-4.1 11.4-3.5 17.3-3.5c5.7 0.1 12.1 0.1 16.5 4.3c3.2 3.7 4.4 8.7 4.4 13.4c0 38.1 0 76.1 0 114.1c-0.1 15.3-5.3 30.8-15.7 42.1c-12.8 14-31.2 23-50.2 23.7c-15.1 0.4-30.2-4-43.2-11.7c-5.6-3.3-11.8-7.1-14.4-13.5c-1.2-7.8 3.3-15.2 8.7-20.5c3.6-3.5 7.2-8.7 12.9-8c3.5-0.2 6.2 2.2 8.8 4c8.7 6.2 19.5 9.5 30.2 8.1c5.9-1 11.2-4.8 14.2-10c4.9-7.2 5.4-16.3 4.9-24.7q-1.8 0.4-3 1.6c-7.2 7.5-17.9 10.6-28.1 10.6c-15.4 0.5-30-7.4-40.3-18.4c-10.6-10.1-17.8-23.7-19.7-38.2c-3-19.4 2.9-40.1 16.4-54.4c0.1-0.1 0.3-0.3 0.3-0.4c9.9-11.5 23.9-20.4 39.3-21.5c9.9-1.3 19.7 2.1 28 7.3c2.6 1.8 4.2 4.7 7 6.3c1-3.9 2.2-8.2 5.7-10.7zm-46 46.6c-0.1 0.1-0.3 0.3-0.4 0.4c-6.5 6.4-9.2 16.8-5.3 25.3l-0.5 0.8l0.6 1l0.9 0.1c3.6 5.7 9.3 10.6 16.2 11.7c6.2 0.8 13.2 0.2 18.1-4.2c3.3-3.2 6.6-6.9 7.7-11.5l0.9-0.1l0.5-1l-0.5-0.7c1.6-9.3-2.6-19.1-10.2-24.5c-0.1 0-0.3-0.2-0.4-0.2c-8.5-5.2-20.5-4.1-27.6 2.9z" /><path class="s2" d="m686.2 92c6.4-0.6 13.2-0.2 19.1 2.7c3.9 1.8 6.4 6 6.5 10.2c0.9 17.1 0.3 34.1 0.5 51.1c-0.1 18.7 0.3 37.3-0.3 56c0.2 5.4-1.5 11.7-6.7 14.3c-6.6 3.3-14.2 2.6-21.3 2.4c-5-0.5-10.8-1.6-13.7-6.2c-2.4-4.4-2.8-9.5-3-14.4q0-41.6 0-83.1c0.2-8.5-1-17.4 2.3-25.5c2.6-6.5 10.6-6.9 16.6-7.5z" /><path class="s2" d="m899.3 97.4c4.7-5.2 12.3-5.1 18.7-5.7c6.3 0.1 13.4 0.6 18.6 4.7c3.9 3.7 4.1 9.5 4.2 14.6q0.1 49.5 0 99c0.1 4.6-0.7 9.4-3.3 13.3c-0.1 0.1-0.2 0.3-0.3 0.4c-1.2 1.6-3.2 3.2-5.4 3c-0.4 0.2-1.4 0.6-1.9 0.9c-3.7 1.6-7.9 1.2-11.9 1.3c-6 0.1-12.6-0.5-17.5-4.3c-3.6-3.9-4.1-9.5-4.3-14.5c-0.1-32.1 0-64.1-0.1-96.1c-0.1-5.6 0.2-11.7 3.2-16.6z" /><path fill-rule="evenodd" class="s2" d="m1111.7 106.5c9.8-9.1 23-14.5 36.3-14.8c8.5 0 16.8 2.9 24 7.3c2.7 1.7 4.3 4.7 7 6.3c2.1-1.8 1.9-5.3 3.9-7.4c4.7-5.9 13.1-6.6 20.1-6.4c5.8 0.4 12.3 0.5 17.2 4.3c3.9 4.4 4.2 10.6 4.6 16.2q0 48 0 96c-0.3 4.5-0.5 9.2-2.5 13.3c-1.4 3.1-4.6 5-7.7 5.9c-8.3 2.3-17.2 1.6-25.4-0.5c-5.4-1.5-8-6.7-9.4-11.7c-3.7 2.5-6.2 6.6-10.4 8.4c-10.4 5.4-23.2 6.8-34.3 3.2c-0.5-0.2-1.5-0.6-2-0.8c-1.7 0.1-3.2-0.6-4.7-1.2c-11.4-5.1-21.1-13.6-28.6-23.4c-11.5-15.2-16.3-35.5-12.3-54.1c0.2-0.5 0.5-1.5 0.7-2c-0.3-1.5 0.2-2.9 0.6-4.4c3.8-13.3 12-25.1 22.5-33.9c0.1-0.1 0.3-0.3 0.4-0.3zm24.9 38.9c-0.1 0-0.2 0.2-0.3 0.3c-3.8 4.9-5.7 11.2-5.1 17.4q-1.9 2.1 0.7 2.8c0.7 3.1 2.5 5.9 4.4 8.4c0.1 0.1 0.2 0.3 0.3 0.4c3.1 3.6 7 6.5 11.6 7.7c0.1 0.1 0.4 0.1 0.5 0.2c0.9 0.1 2.6 0.2 3.5 0.3c0.5 2 5 2 5.6 0.1c6.3-0.2 11.9-4.4 15.6-9.3c0-0.1 0.2-0.3 0.3-0.4c3.3-4.7 4.8-10.6 4.2-16.4l0.5-0.7l-0.4-1l-0.8-0.2c-0.5-3-2-5.7-3.6-8.3c0-0.1-0.2-0.3-0.2-0.4c-7.9-12.6-28.2-13-36.8-0.9z" /><path class="s3" d="m259.3 50.7c0.1-0.1 0.3-0.3 0.3-0.4c0 0.1-0.2 0.3-0.3 0.4z" /><path class="s3" d="m400.3 63.6c0.1-0.1 0.2-0.3 0.3-0.4c-0.1 0.1-0.2 0.3-0.3 0.4z" /><path class="s3" d="m386.3 80.6c0.1-0.1 0.3-0.2 0.3-0.3c0 0.1-0.2 0.2-0.3 0.3z" /><path class="s3" d="m580.3 94.4c0.1 0.1 0.3 0.2 0.4 0.3c-0.1-0.1-0.3-0.2-0.4-0.3z" /><path class="s3" d="m588.3 102.3c0.1 0.1 0.2 0.3 0.3 0.4c-0.1-0.1-0.2-0.3-0.3-0.4z" /><path class="s3" d="m351.7 122.7c0.3-0.4 1-1.2 1.4-1.6l0.2 0.9l-0.7 0.8z" /><path class="s3" d="m591.3 160.7c0.1-0.1 0.2-0.3 0.3-0.4c-0.1 0.1-0.2 0.3-0.3 0.4z" /><path class="s3" d="m588.3 164.7c0.1-0.1 0.3-0.3 0.3-0.4c0 0.1-0.2 0.3-0.3 0.4z" /><path class="s3" d="m1148.2 182.4c0.1 0.1 0.4 0.1 0.5 0.2c-0.1-0.1-0.4-0.1-0.5-0.2z" /><path class="s3" d="m328.4 329.3c0 0.1 0.2 0.3 0.3 0.4c-0.1-0.1-0.3-0.3-0.3-0.4z" /><path class="s3" d="m269.4 442.3c0 0.1 0.2 0.3 0.3 0.4c-0.1-0.1-0.3-0.3-0.3-0.4z" /><path class="s4" d="m246.5 65.8c3.5 2 6.5 4.5 9.6 7.1c28.4 23.3 50.8 53.9 64.1 88.2c0 0.3-0.1 1.1-0.1 1.4c-19.3 23.3-38.3 46.7-57.5 70.1c-2 2.4-4.2 4.8-5.9 7.5c1.1 3 3.7 5.1 5.6 7.6c19.2 23.6 38.6 47.1 57.8 70.6c0 0.4 0 1.1 0.1 1.4c-9.8 25-24.4 48.1-42.6 67.8c-9.4 10-19.5 19.5-30.8 27.2l-0.6 0.4q-2-2.6-4.1-5.2c-44.3-54-88.5-108.1-132.9-162.1c-1.8-2.5-4.4-4.7-5.5-7.7c2.2-3.5 5.1-6.5 7.7-9.7c43.6-53.3 87.3-106.6 131-160q2-2.3 4.1-4.6z" /><path class="s4" d="m361.7 370.3l0.9-0.1l0.7 0.9l-0.2 0.8c-0.4-0.4-1.1-1.2-1.4-1.6z" /><path class="s4" d="m375.7 387.4l0.9-0.1l0.7 0.8l-0.3 0.9c-0.3-0.4-1-1.2-1.3-1.6z" /><path class="s5" d="m599.1 130.3c2.1 0.6 2.1 5.7 0.1 6.4q0.1-3.2-0.1-6.4z" /><path class="s5" d="m595.4 265.3c5-1.3 9.9 1.7 13.8 4.5c4.6 2.6 7.7 6.9 11.6 10.4c2 1.8 3.1 4.5 4.1 7c0.5 6.2-3.2 12-7.2 16.5c-3.8 5.5-9.5 9.3-13.1 14.9c-10.3 10.4-20.6 20.7-31 30.9c-4.9 3.4-8.8 8-13 12.2c-1.2 0.8-1.1 2.7 0 3.6c16.3 16.1 32.4 32.3 48.6 48.5c2.1 1.9 3.4 4.6 5.5 6.5c4.5 4.4 8.5 9.7 10.2 15.9c1 5.4-3.3 9.5-6.2 13.5c-5.1 4-9.6 8.9-15.7 11.2c-4.9 2.8-10.8 0.2-14.3-3.6c-3.5-3.8-7.4-7.2-10.8-11.1c-2.4-4-6.4-6.4-8.7-10.4c-2.8-3.2-6.1-5.9-8.4-9.5c-4-3.5-6.7-8.1-10.5-11.6c-2.4-2.3-4-5.3-6.5-7.5c-3-2.7-4.9-6.4-8-9.1c-3.8-3.5-6.1-8.7-10.8-11.2h-0.8c-0.3 0.3-0.8 0.9-1.1 1.2c-0.2 18.7 0 37.3-0.1 56c0.2 3.7-2.1 7-3.8 10.1c-3.1 3.2-7.6 4.9-12.1 4.9c-6.6 1.4-13.4 0.6-19.7-1.5c-6.2-2.4-9.6-9.1-9.4-15.5c0-53-0.1-106.1 0-159.1c0.8-3.5 2-7.1 3.9-10.1c7.2-5 16.4-5.5 24.9-4.7c3.3 0.9 6.8 1.4 9.9 3.1c4.5 3.1 6.8 8.3 6.3 13.7c0 17.6 0 35.3 0 52.9c-0.2 1.4 1.4 2.8 2.7 2c5.3-4.5 8.8-10.6 14.1-15.2c2.3-3.8 6-6.6 8.8-10.1c2.2-3.7 6.1-6 8.4-9.6c1.9-3 5.1-5 7.1-8c1.7-2.8 4.6-4.7 6.5-7.4c1.9-3.3 5.3-5.4 7.3-8.7c5.1-5.9 10.3-12.3 17.5-15.6z" /><path class="s5" d="m1452.7 277.7c3.7-2.1 8-2.9 12.3-2.7c6.5 0 14-0.8 19.4 3.7c4.4 2.9 5.9 8.3 5.6 13.3c1.5 10.7 0.1 21.4 0.9 32.1c8.3-1.5 16.7-1.1 25.1-1.1c5.7 0.4 11.6 4 13.1 9.9c2.6 9.9 2.8 21.4-2.9 30.3c-2.8 1.8-6 3-9.2 3.7c-6 0.2-12 0-18 0.1c-2.8 0.3-5.3-1.3-8.1-1.1c-0.5 14-0.2 28.1-0.1 42.1c-0.3 4.1 2.1 8.3 6.3 9c5 0.4 9.9 1 14.9 1.1c6.5 1 11.4 7.3 11 13.9c1 4.6 0 9.3-0.2 14c-0.7 5.4-4.1 10.6-9.5 12.3c-7.9 2.3-16.3 1.7-24.3 0.6c-8.6-1.1-17.4-3.2-24.6-8.4c-3.9-3-7.4-6.5-10.5-10.4c-6.3-9.8-8.1-21.7-7.9-33.1c-0.1-12.9 0.1-25.9-0.1-38.8c-1.6-2.4-5.4-0.7-7.9-1.2c-5.4 0.7-11.3-1-13.9-6c-2.3-4.3-2.1-9.2-2.9-13.9c1-3.6 0.7-7.4 0.9-11.1c0.9-3.6 1.9-7.6 4.7-10.2c4.2-2.7 9.5-3.6 14.4-2.3c1.6 0.2 3.7 1.2 4.7-0.7c0.3-11.9-0.2-23.9 0.3-35.8c0.7-3.7 2.8-7.7 6.5-9.3z" /><path fill-rule="evenodd" class="s5" d="m709.5 319.6c31.4-4.1 64.5 15.7 75.2 45.7c8.4 23.3 4.9 51.6-12 70.4c-2.8 2.6-4.9 5.8-7.9 8.1c-9.7 9.9-23.3 15.1-36.7 17.3c-13 2.7-26.2-0.4-38.4-4.9c-12.3-5.7-23.4-14.5-31.1-25.8c-6.3-7.8-9.9-17.5-11.8-27.2c-1.4-6.3-0.6-12.9-0.8-19.3c1.6-13 6-26.2 14.4-36.5c7.9-8.2 15.9-17.1 26.9-21.1c6.8-3.8 14.5-5.7 22.2-6.8zm1.8 45.7c-8.7 2.5-16.9 9-19.1 18.1c-1.3 8.3-0.9 17.9 5 24.5c5.1 4.2 11.1 7.7 17.8 8.4c8.6 0.8 16.8-3.6 22.9-9.4c3-3.6 5.3-8 5.3-12.8c0.4-6.8 0.1-14.2-4.5-19.7c-6.6-7.7-17.5-11.1-27.4-9.1z" /><path fill-rule="evenodd" class="s5" d="m1143.4 331.4c16.7-10.3 37.3-13.5 56.6-10.3c14.4 2.4 28.4 9.9 36.9 22.1c2.7 2.9 3.8 6.8 5.9 10.1c3 4.8 3.7 10.7 4.6 16.2c1 5.4 0 10.8-0.9 16.1c-2.5 11.2-13 20-24.4 20.4c-20.7 0-41.4 0-62.1 0c-0.2 3.1-0.3 6.5 2.2 8.8c7.7 7.6 19 11.2 29.7 10.1c2.9-1.1 6-0.9 9.1-0.9c7.8-0.6 14.4-5.7 22.2-6.3c7-0.2 11.7 6.1 14.4 11.7c1.5 4.7 4.6 9.8 2.6 14.8c-0.3 2.9-2.2 5.1-3.7 7.4c-2.6 3.3-6.9 4.5-10.5 6.4c-7.2 3.4-15.3 3.7-23 5c-3.9 0.1-7.9-0.2-11.9 0.1c-2.5 0.7-5.2 1.5-7.7 0.5c-3-1.1-6.3-0.4-9.4-0.6c-11.9-1.9-23.9-5.2-33.8-12.3c-13.5-9.4-22.2-24.5-26.6-40.1c-4.9-19.8-2.1-41.7 9-59c5.4-8.1 12.6-14.9 20.8-20.2zm23 37.9c-3.6 3.7-7.2 8.3-6.6 13.7q16.1 0 32.2 0c2.3 0.1 4.5-0.7 6.7-1.2c3.9-2.3 5.4-7.7 3.4-11.8c-2.1-6.6-9.6-9.4-16.1-9.1c-7.5-0.6-14.3 3.6-19.6 8.4z" /><path class="s5" d="m1030.4 321.6c4.8-1 9.7-0.5 14.6-0.6c6.9-0.3 13.6 1.7 20.1 4c7.6 2.1 14.4 6.5 20.6 11.3c2.8 2.9 6.7 5.4 7.2 9.7c0.6 6.2-2.6 12-6.1 16.9c-4 5.8-8.8 11.9-16 13.8c-4.6-0.1-9-2.2-12.9-4.6c-3.2-2.5-6.4-5.4-10.7-5.3c-4.2-1.8-8.6-0.1-12.9 0.5c-5.4 2.4-11.1 5.6-14 11c-3.5 5.9-2.7 13.1-2.3 19.6c2.6 12.7 17.3 19.7 29.3 16.5c5.5-1.1 10.3-4.2 15-7.1c2.8-2 6.3-1.3 9.6-1.2c5.3 3.1 10.5 6.8 13.9 12.1c4 4.5 8.1 10.2 6.9 16.6c-1.6 4.8-4.7 9.1-8.9 11.9c-7.4 5.6-15.5 10.4-24.6 12.4c-13.3 3.1-27.3 2.4-40.1-2.3c-8.1-3.4-15.9-7.6-22.9-13c-7.4-5-12.3-12.7-16.8-20.2c-11.5-21.2-11.2-48.8 1.9-69.3c10.9-17.1 29.3-28.9 49.1-32.7z" /><path class="s5" d="m815.8 326.8c9.5-5.8 21.7-5.8 32.1-2.6c5.9 1.8 8.3 8.4 8.2 14.1c3.8-0.8 6-4.1 8.6-6.6c4-4.1 9.5-6.5 15-8c5-2 10.4-1.9 15.6-1c10.6 1 20.7 5.4 28.9 12.1c5.8 5.6 11.6 11.4 15.4 18.6c5.2 10.1 8.6 21.2 9.4 32.5c0 18.4 0 36.8 0 55.1c0.2 4.9-1.3 9.9-4.3 13.7c-4.8 4-11.3 4.2-17.2 4.7c-6.4-0.1-13.1-0.7-18.6-4.3c-4-3.6-3.6-9.4-4.9-14.2c-0.1-18.6 0.1-37.2 0-55.9c-1.4-8.7-8.6-16-17.2-17.9c-5.9-0.1-12.2-1-17.6 2.1c-6.9 2.7-11 9.8-12.2 16.8c-0.3 12.7-0.1 25.3-0.2 38c-0.1 7.9 0.5 16-1 23.8c-1.1 3.5-3.1 6.7-6.2 8.8c-4.8 2.4-10.2 2.3-15.4 2.9c-4.5-0.8-9.3 0-13.5-2.2c-5.8-2-8.5-8.5-8.7-14.3c0-35.3 0-70.7 0-106.1c-0.1-3.7 2.1-7 3.8-10.1z" /><path fill-rule="evenodd" class="s5" d="m1276.4 325.5c7-4.2 15.7-3.9 23.5-2.4c3.2 0.8 7 1 9.3 3.7c2.8 2.1 3.6 5.5 4.8 8.6c2.7-1.3 4.6-3.6 6.8-5.6c13.3-8.9 31.4-9.7 45.5-2c5.9 2.3 10.4 6.8 15.3 10.6c5.1 4.3 8.9 9.8 12.9 15.1c4 7.4 8 15.1 9.3 23.6c2.2 11.6 1.3 23.8-2.9 34.8c-3.2 6.3-5.6 13.2-10.6 18.4c-3.6 5-8 9.4-13 13c-8.1 7.1-18.4 12-29.2 12.6c-9.7 0.5-19.9-1.3-27.8-7.3c-2.2-1.2-3.7-3.5-6.3-3.9c-0.2 19.5 0.1 38.9-0.1 58.4c-0.2 5.7-2.7 12.1-8.2 14.5c-8.8 3.1-18.5 3-27.3 0c-6-2.3-8.1-9.6-8.3-15.5c-0.1-53.4 0-106.7 0-160.1c-0.1-3.5 0.2-7.1 1.6-10.4c1-2.4 2.1-5.2 4.7-6.1zm55 42c-6.5 1.7-11.3 7-14.1 12.8c-3 7.4-2 16.2 2.7 22.6c7.2 11 24.6 11.9 33.5 2.6c4.8-4.3 7.5-10.8 7.3-17.1c-0.8-7.3-4.5-14.5-10.9-18.4c-5.3-3.7-12.4-3.8-18.5-2.5z" /></svg>